<svg width="84" height="84" viewBox="0 0 84 84" fill="none" xmlns="http://www.w3.org/2000/svg">
<g filter="url(#filter0_d_17_128)">
<circle cx="42" cy="42" r="30" fill="#FCFAFB"/>
</g>
<path d="M46.68 31.98H49.5V27.21C48.1346 27.0681 46.7627 26.998 45.39 27C41.31 27 38.52 29.49 38.52 34.05V37.98H33.915V43.32H38.52V57H44.04V43.32H48.63L49.32 37.98H44.04V34.575C44.04 33 44.46 31.98 46.68 31.98Z" stroke="#2D3142" stroke-width="2" stroke-linejoin="round"/>
<path d="M46.68 31.98H49.5V27.21C48.1346 27.0681 46.7627 26.998 45.39 27C41.31 27 38.52 29.49 38.52 34.05V37.98H33.915V43.32H38.52V57H44.04V43.32H48.63L49.32 37.98H44.04V34.575C44.04 33 44.46 31.98 46.68 31.98Z" stroke="#2D3142" stroke-width="2" stroke-linejoin="round"/>
<defs>
<filter id="filter0_d_17_128" x="0" y="0" width="84" height="84" filterUnits="userSpaceOnUse" color-interpolation-filters="sRGB">
<feFlood flood-opacity="0" result="BackgroundImageFix"/>
<feColorMatrix in="SourceAlpha" type="matrix" values="0 0 0 0 0 0 0 0 0 0 0 0 0 0 0 0 0 0 127 0" result="hardAlpha"/>
<feOffset/>
<feGaussianBlur stdDeviation="6"/>
<feComposite in2="hardAlpha" operator="out"/>
<feColorMatrix type="matrix" values="0 0 0 0 0.643137 0 0 0 0 0.654902 0 0 0 0 0.721569 0 0 0 0.75 0"/>
<feBlend mode="normal" in2="BackgroundImageFix" result="effect1_dropShadow_17_128"/>
<feBlend mode="normal" in="SourceGraphic" in2="effect1_dropShadow_17_128" result="shape"/>
</filter>
</defs>
</svg>
