<svg width="84" height="84" viewBox="0 0 84 84" fill="none" xmlns="http://www.w3.org/2000/svg">
<g filter="url(#filter0_d_17_128)">
<rect x="12" y="12" width="60" height="60" rx="12" fill="#FCFAFB"/>
</g>
<path d="M39 34C39 27.02 32.4 22.52 32.12 22.34C31.7893 22.1164 31.3992 21.997 31 21.997C30.6008 21.997 30.2107 22.1164 29.88 22.34C29.6 22.54 23 27.1 23 34C23 36.1217 23.8429 38.1566 25.3431 39.6568C26.8434 41.1571 28.8783 42 31 42C33.1217 42 35.1566 41.1571 36.6569 39.6568C38.1571 38.1566 39 36.1217 39 34ZM31 38C29.9391 38 28.9217 37.5786 28.1716 36.8284C27.4214 36.0783 27 35.0609 27 34C27.1371 32.5558 27.5616 31.1537 28.2485 29.876C28.9354 28.5983 29.8709 27.4708 31 26.56C32.1333 27.4669 33.0717 28.5934 33.7591 29.8719C34.4464 31.1503 34.8685 32.5544 35 34C35 35.0609 34.5786 36.0783 33.8284 36.8284C33.0783 37.5786 32.0609 38 31 38ZM54.12 22.34C53.7893 22.1164 53.3992 21.997 53 21.997C52.6008 21.997 52.2107 22.1164 51.88 22.34C51.6 22.54 45 27.1 45 34C45 36.1217 45.8429 38.1566 47.3431 39.6568C48.8434 41.1571 50.8783 42 53 42C55.1217 42 57.1566 41.1571 58.6569 39.6568C60.1571 38.1566 61 36.1217 61 34C61 27.02 54.4 22.52 54.12 22.34ZM53 38C51.9391 38 50.9217 37.5786 50.1716 36.8284C49.4214 36.0783 49 35.0609 49 34C49.1371 32.5558 49.5616 31.1537 50.2485 29.876C50.9354 28.5983 51.8709 27.4708 53 26.56C54.1333 27.4669 55.0717 28.5934 55.7591 29.8719C56.4464 31.1503 56.8685 32.5544 57 34C57 35.0609 56.5786 36.0783 55.8284 36.8284C55.0783 37.5786 54.0609 38 53 38ZM44.12 42.34C43.7893 42.1164 43.3992 41.997 43 41.997C42.6008 41.997 42.2107 42.1164 41.88 42.34C41.6 42.54 35 47.1 35 54C35 56.1217 35.8429 58.1566 37.3431 59.6568C38.8434 61.1571 40.8783 62 43 62C45.1217 62 47.1566 61.1571 48.6569 59.6568C50.1571 58.1566 51 56.1217 51 54C51 47.02 44.4 42.52 44.12 42.34ZM43 58C41.9391 58 40.9217 57.5786 40.1716 56.8284C39.4214 56.0783 39 55.0609 39 54C39.1371 52.5558 39.5616 51.1537 40.2485 49.876C40.9354 48.5983 41.8709 47.4708 43 46.56C44.1333 47.4669 45.0717 48.5934 45.7591 49.8719C46.4464 51.1503 46.8685 52.5544 47 54C47 55.0609 46.5786 56.0783 45.8284 56.8284C45.0783 57.5786 44.0609 58 43 58Z" fill="#A8201A"/>
<path d="M39 34C39 27.02 32.4 22.52 32.12 22.34C31.7893 22.1164 31.3992 21.997 31 21.997C30.6008 21.997 30.2107 22.1164 29.88 22.34C29.6 22.54 23 27.1 23 34C23 36.1217 23.8429 38.1566 25.3431 39.6568C26.8434 41.1571 28.8783 42 31 42C33.1217 42 35.1566 41.1571 36.6569 39.6568C38.1571 38.1566 39 36.1217 39 34ZM31 38C29.9391 38 28.9217 37.5786 28.1716 36.8284C27.4214 36.0783 27 35.0609 27 34C27.1371 32.5558 27.5616 31.1537 28.2485 29.876C28.9354 28.5983 29.8709 27.4708 31 26.56C32.1333 27.4669 33.0717 28.5934 33.7591 29.8719C34.4464 31.1503 34.8685 32.5544 35 34C35 35.0609 34.5786 36.0783 33.8284 36.8284C33.0783 37.5786 32.0609 38 31 38ZM54.12 22.34C53.7893 22.1164 53.3992 21.997 53 21.997C52.6008 21.997 52.2107 22.1164 51.88 22.34C51.6 22.54 45 27.1 45 34C45 36.1217 45.8429 38.1566 47.3431 39.6568C48.8434 41.1571 50.8783 42 53 42C55.1217 42 57.1566 41.1571 58.6569 39.6568C60.1571 38.1566 61 36.1217 61 34C61 27.02 54.4 22.52 54.12 22.34ZM53 38C51.9391 38 50.9217 37.5786 50.1716 36.8284C49.4214 36.0783 49 35.0609 49 34C49.1371 32.5558 49.5616 31.1537 50.2485 29.876C50.9354 28.5983 51.8709 27.4708 53 26.56C54.1333 27.4669 55.0717 28.5934 55.7591 29.8719C56.4464 31.1503 56.8685 32.5544 57 34C57 35.0609 56.5786 36.0783 55.8284 36.8284C55.0783 37.5786 54.0609 38 53 38ZM44.12 42.34C43.7893 42.1164 43.3992 41.997 43 41.997C42.6008 41.997 42.2107 42.1164 41.88 42.34C41.6 42.54 35 47.1 35 54C35 56.1217 35.8429 58.1566 37.3431 59.6568C38.8434 61.1571 40.8783 62 43 62C45.1217 62 47.1566 61.1571 48.6569 59.6568C50.1571 58.1566 51 56.1217 51 54C51 47.02 44.4 42.52 44.12 42.34ZM43 58C41.9391 58 40.9217 57.5786 40.1716 56.8284C39.4214 56.0783 39 55.0609 39 54C39.1371 52.5558 39.5616 51.1537 40.2485 49.876C40.9354 48.5983 41.8709 47.4708 43 46.56C44.1333 47.4669 45.0717 48.5934 45.7591 49.8719C46.4464 51.1503 46.8685 52.5544 47 54C47 55.0609 46.5786 56.0783 45.8284 56.8284C45.0783 57.5786 44.0609 58 43 58Z" fill="#A8201A"/>
<defs>
<filter id="filter0_d_17_128" x="0" y="0" width="84" height="84" filterUnits="userSpaceOnUse" color-interpolation-filters="sRGB">
<feFlood flood-opacity="0" result="BackgroundImageFix"/>
<feColorMatrix in="SourceAlpha" type="matrix" values="0 0 0 0 0 0 0 0 0 0 0 0 0 0 0 0 0 0 127 0" result="hardAlpha"/>
<feOffset/>
<feGaussianBlur stdDeviation="6"/>
<feComposite in2="hardAlpha" operator="out"/>
<feColorMatrix type="matrix" values="0 0 0 0 0.643137 0 0 0 0 0.654902 0 0 0 0 0.721569 0 0 0 0.75 0"/>
<feBlend mode="normal" in2="BackgroundImageFix" result="effect1_dropShadow_17_128"/>
<feBlend mode="normal" in="SourceGraphic" in2="effect1_dropShadow_17_128" result="shape"/>
</filter>
</defs>
</svg>
