<svg width="1080" height="1080" viewBox="0 0 1080 1080" fill="none" xmlns="http://www.w3.org/2000/svg">
<rect width="1080" height="1080" rx="60" fill="#FCFAFB"/>
<path d="M901.451 494.918C901.451 513.964 899.971 532.36 897.011 550.104C894.225 567.686 888.654 584.128 880.296 599.43C871.939 614.733 859.403 628.407 842.689 640.454C834.68 646.314 825.016 651.035 813.699 654.617C802.382 658.198 790.804 660.803 778.964 662.431C767.299 664.059 756.591 664.873 746.841 664.873C731.868 664.873 717.155 664.791 702.704 664.628C688.427 664.466 674.063 664.221 659.612 663.896C645.335 663.57 630.623 663.245 615.475 662.919L611.819 659.501V330.823L615.475 327.405C630.448 326.916 645.074 326.509 659.351 326.184C673.802 325.858 688.253 325.696 702.704 325.696C717.155 325.533 731.868 325.451 746.841 325.451C756.591 325.451 767.386 326.265 779.226 327.893C791.065 329.521 802.643 332.207 813.96 335.951C825.278 339.533 834.854 344.254 842.689 350.114C859.229 362.161 871.678 375.835 880.035 391.138C888.393 406.44 894.051 422.882 897.011 440.464C899.971 457.883 901.451 476.034 901.451 494.918ZM815.527 494.918C815.527 482.546 814.657 470.011 812.916 457.313C811.349 444.452 808.215 432.731 803.514 422.15C798.813 411.406 791.936 402.778 782.882 396.266C773.828 389.591 761.814 386.254 746.841 386.254C737.961 386.254 729.43 386.254 721.247 386.254C713.064 386.091 704.358 385.929 695.13 385.766V604.314C704.358 604.151 713.064 604.07 721.247 604.07C729.43 604.07 737.961 604.07 746.841 604.07C761.814 604.07 773.828 600.814 782.882 594.302C791.936 587.628 798.813 578.918 803.514 568.174C808.215 557.267 811.349 545.465 812.916 532.767C814.657 519.906 815.527 507.29 815.527 494.918Z" fill="#2D3142"/>
<path fill-rule="evenodd" clip-rule="evenodd" d="M183.258 139.355L204.778 143.238C214.632 145.016 229.51 149.3 243.541 156.677C253.187 161.749 263.957 169.089 271.884 179.345C285.933 176.504 306.066 173.527 326.12 173.527C346.63 173.527 366.408 176.638 379.835 179.572C384.346 174.468 389.97 168.96 396.502 163.801C407.875 154.819 423.173 145.974 441.212 143.164L462.294 139.881V243.088C462.294 253.024 454.129 261.078 444.056 261.078C433.984 261.078 425.819 253.024 425.819 243.088V187.226C423.584 188.66 421.406 190.224 419.299 191.888C410.928 198.499 404.852 205.763 402.128 209.83L394.624 221.033L381.602 217.123C373.612 214.724 350.216 209.507 326.12 209.507C301.969 209.507 276.844 214.742 267.813 217.236L251.767 221.668L245.848 206.303C243.547 200.33 237.006 194.014 226.383 188.428C224.195 187.277 221.96 186.226 219.734 185.272V243.088C219.734 253.024 211.568 261.078 201.496 261.078C191.424 261.078 183.258 253.024 183.258 243.088V139.355Z" fill="#A8201A"/>
<ellipse cx="270.97" cy="280.39" rx="25.3134" ry="25.164" fill="#2D3142"/>
<ellipse cx="374.581" cy="280.39" rx="25.3134" ry="25.164" fill="#2D3142"/>
<path d="M318.32 469.959C323.915 461.299 331.246 450.799 340.313 438.459C349.573 425.903 357.772 415.187 364.911 406.31L363.174 404.362C356.422 405.228 349.091 406.094 341.181 406.96C333.271 407.609 325.265 408.151 317.162 408.584C309.253 409.017 301.536 409.341 294.012 409.558C286.488 409.774 279.832 409.883 274.045 409.883H190.992C189.641 403.604 188.677 397.651 188.098 392.022C187.712 386.393 187.519 380.765 187.519 375.136C187.519 366.26 188.098 357.925 189.255 350.131C190.413 342.338 191.956 334.111 193.886 325.451H449.989C454.04 341.688 456.934 353.92 458.67 362.146C460.407 370.157 461.468 376.002 461.854 379.682C462.432 383.362 462.722 386.502 462.722 389.099C462.722 394.945 461.95 400.898 460.407 406.96C459.056 413.022 456.452 419.192 452.593 425.47L323.529 624.208C317.934 632.868 310.893 643.043 302.404 654.733C293.915 666.207 285.909 676.382 278.385 685.258L280.122 687.207C292.661 686.124 307.131 685.15 323.529 684.284C340.12 683.202 354.589 682.66 366.936 682.66H399.058C413.141 682.66 425.584 681.145 436.388 678.114C447.385 675.083 456.741 671.511 464.458 667.398C466.001 673.676 467.352 681.037 468.509 689.48C469.86 697.706 470.535 705.933 470.535 714.16C470.535 732.778 464.844 746.633 453.462 755.726C442.272 764.602 427.803 769.04 410.054 769.04H188.677C185.783 753.669 183.564 742.087 182.021 734.293C180.67 726.283 179.706 720.438 179.127 716.758C178.741 712.861 178.548 709.505 178.548 706.691C178.548 700.412 179.416 693.918 181.153 687.207C183.082 680.279 185.879 674.001 189.545 668.372L318.32 469.959Z" fill="#2D3142"/>
<path d="M715.642 703.496H664.801H608.62H568.191V390.148C568.191 367.301 564.66 350.86 557.598 340.825C550.535 330.576 540.374 325.451 527.114 325.451H501.819L498.793 329.615V709.147C498.793 727.724 502.396 742.35 509.602 753.026C516.809 763.702 526.61 769.04 539.005 769.04H568.191H664.801H773.119C811.383 769.04 837.904 829.476 837.604 865.599C837.106 925.478 790.78 1000.78 773.119 981.471V1002.54C773.119 1032.38 886.146 974.214 886.146 865.599C886.146 737.439 813.738 703.496 773.119 703.496H715.642Z" fill="#2D3142"/>
</svg>
