<svg width="84" height="84" viewBox="0 0 84 84" fill="none" xmlns="http://www.w3.org/2000/svg">
<g filter="url(#filter0_d_17_128)">
<circle cx="42" cy="42" r="30" fill="#FCFAFB"/>
</g>
<path d="M52.5 30H31.5C30.3065 30 29.1619 30.4741 28.318 31.318C27.4741 32.1619 27 33.3065 27 34.5V49.5C27 50.6935 27.4741 51.8381 28.318 52.682C29.1619 53.5259 30.3065 54 31.5 54H52.5C53.6935 54 54.8381 53.5259 55.682 52.682C56.5259 51.8381 57 50.6935 57 49.5V34.5C57 33.3065 56.5259 32.1619 55.682 31.318C54.8381 30.4741 53.6935 30 52.5 30V30ZM31.5 33H52.5C52.8978 33 53.2794 33.158 53.5607 33.4393C53.842 33.7206 54 34.1022 54 34.5L42 41.82L30 34.5C30 34.1022 30.158 33.7206 30.4393 33.4393C30.7206 33.158 31.1022 33 31.5 33V33ZM54 49.5C54 49.8978 53.842 50.2794 53.5607 50.5607C53.2794 50.842 52.8978 51 52.5 51H31.5C31.1022 51 30.7206 50.842 30.4393 50.5607C30.158 50.2794 30 49.8978 30 49.5V37.92L41.22 44.775C41.448 44.9067 41.7067 44.976 41.97 44.976C42.2333 44.976 42.492 44.9067 42.72 44.775L54 37.92V49.5Z" fill="#2D3142"/>
<path d="M52.5 30H31.5C30.3065 30 29.1619 30.4741 28.318 31.318C27.4741 32.1619 27 33.3065 27 34.5V49.5C27 50.6935 27.4741 51.8381 28.318 52.682C29.1619 53.5259 30.3065 54 31.5 54H52.5C53.6935 54 54.8381 53.5259 55.682 52.682C56.5259 51.8381 57 50.6935 57 49.5V34.5C57 33.3065 56.5259 32.1619 55.682 31.318C54.8381 30.4741 53.6935 30 52.5 30ZM31.5 33H52.5C52.8978 33 53.2794 33.158 53.5607 33.4393C53.842 33.7206 54 34.1022 54 34.5L42 41.82L30 34.5C30 34.1022 30.158 33.7206 30.4393 33.4393C30.7206 33.158 31.1022 33 31.5 33ZM54 49.5C54 49.8978 53.842 50.2794 53.5607 50.5607C53.2794 50.842 52.8978 51 52.5 51H31.5C31.1022 51 30.7206 50.842 30.4393 50.5607C30.158 50.2794 30 49.8978 30 49.5V37.92L41.22 44.775C41.448 44.9067 41.7067 44.976 41.97 44.976C42.2333 44.976 42.492 44.9067 42.72 44.775L54 37.92V49.5Z" fill="#2D3142"/>
<defs>
<filter id="filter0_d_17_128" x="0" y="0" width="84" height="84" filterUnits="userSpaceOnUse" color-interpolation-filters="sRGB">
<feFlood flood-opacity="0" result="BackgroundImageFix"/>
<feColorMatrix in="SourceAlpha" type="matrix" values="0 0 0 0 0 0 0 0 0 0 0 0 0 0 0 0 0 0 127 0" result="hardAlpha"/>
<feOffset/>
<feGaussianBlur stdDeviation="6"/>
<feComposite in2="hardAlpha" operator="out"/>
<feColorMatrix type="matrix" values="0 0 0 0 0.643137 0 0 0 0 0.654902 0 0 0 0 0.721569 0 0 0 0.75 0"/>
<feBlend mode="normal" in2="BackgroundImageFix" result="effect1_dropShadow_17_128"/>
<feBlend mode="normal" in="SourceGraphic" in2="effect1_dropShadow_17_128" result="shape"/>
</filter>
</defs>
</svg>
