<svg width="84" height="84" viewBox="0 0 84 84" fill="none" xmlns="http://www.w3.org/2000/svg">
<g filter="url(#filter0_d_17_128)">
<circle cx="42" cy="42" r="30" fill="#FCFAFB"/>
</g>
<path d="M53.1599 43.5C52.8299 43.5 52.4849 43.395 52.1549 43.32C51.4866 43.1727 50.8299 42.9772 50.1899 42.735C49.494 42.4818 48.7291 42.495 48.0424 42.7719C47.3556 43.0488 46.7955 43.5699 46.4699 44.235L46.1399 44.91C44.6789 44.0973 43.3364 43.0878 42.1499 41.91C40.9721 40.7235 39.9626 39.381 39.1499 37.92L39.7799 37.5C40.445 37.1744 40.9661 36.6143 41.243 35.9275C41.5199 35.2408 41.5331 34.4759 41.2799 33.78C41.0417 33.1386 40.8463 32.4822 40.6949 31.815C40.6199 31.485 40.5599 31.14 40.5149 30.795C40.3328 29.7384 39.7793 28.7816 38.9543 28.0968C38.1293 27.4121 37.087 27.0444 36.0149 27.06H31.5149C30.8685 27.0539 30.2283 27.1872 29.638 27.4508C29.0477 27.7144 28.5211 28.102 28.0941 28.5874C27.667 29.0728 27.3496 29.6445 27.1634 30.2636C26.9772 30.8826 26.9265 31.5346 27.0149 32.175C27.814 38.4591 30.6839 44.2978 35.1714 48.7689C39.6588 53.2401 45.508 56.0887 51.7949 56.865H52.3649C53.471 56.8666 54.539 56.4608 55.3649 55.725C55.8395 55.3006 56.2185 54.7803 56.4771 54.1985C56.7357 53.6167 56.8679 52.9866 56.8649 52.35V47.85C56.8465 46.8081 56.4671 45.8048 55.7914 45.0115C55.1157 44.2182 54.1856 43.6839 53.1599 43.5ZM53.9099 52.5C53.9096 52.713 53.864 52.9234 53.7761 53.1174C53.6881 53.3114 53.5599 53.4844 53.3999 53.625C53.2328 53.7705 53.0369 53.8791 52.8249 53.9437C52.613 54.0083 52.3898 54.0275 52.1699 54C46.5523 53.2797 41.3343 50.7097 37.339 46.6954C33.3437 42.6811 30.7985 37.451 30.1049 31.83C30.081 31.6103 30.102 31.388 30.1664 31.1766C30.2309 30.9652 30.3375 30.769 30.4799 30.6C30.6205 30.44 30.7935 30.3117 30.9875 30.2238C31.1815 30.1359 31.3919 30.0903 31.6049 30.09H36.1049C36.4537 30.0822 36.7943 30.1963 37.0681 30.4126C37.3419 30.6289 37.5317 30.9338 37.6049 31.275C37.6649 31.685 37.7399 32.09 37.8299 32.49C38.0032 33.2807 38.2338 34.0578 38.5199 34.815L36.4199 35.79C36.2404 35.8724 36.0788 35.9894 35.9446 36.1344C35.8104 36.2794 35.7062 36.4494 35.6379 36.6348C35.5696 36.8201 35.5386 37.0172 35.5467 37.2146C35.5547 37.412 35.6017 37.6058 35.6849 37.785C37.8437 42.4091 41.5608 46.1262 46.1849 48.285C46.5501 48.435 46.9597 48.435 47.3249 48.285C47.512 48.2181 47.6839 48.1147 47.8307 47.9808C47.9774 47.8469 48.0961 47.6851 48.1799 47.505L49.1099 45.405C49.8854 45.6823 50.6768 45.9127 51.4799 46.095C51.8799 46.185 52.2849 46.26 52.6949 46.32C53.036 46.3932 53.341 46.583 53.5573 46.8568C53.7736 47.1306 53.8877 47.4712 53.8799 47.82L53.9099 52.5Z" fill="black"/>
<path d="M53.1599 43.5C52.8299 43.5 52.4849 43.395 52.1549 43.32C51.4866 43.1727 50.8299 42.9772 50.1899 42.735C49.494 42.4818 48.7291 42.495 48.0424 42.7719C47.3556 43.0488 46.7955 43.5699 46.4699 44.235L46.1399 44.91C44.6789 44.0973 43.3364 43.0878 42.1499 41.91C40.9721 40.7235 39.9626 39.381 39.1499 37.92L39.7799 37.5C40.445 37.1744 40.9661 36.6143 41.243 35.9275C41.5199 35.2408 41.5331 34.4759 41.2799 33.78C41.0417 33.1386 40.8463 32.4822 40.6949 31.815C40.6199 31.485 40.5599 31.14 40.5149 30.795C40.3328 29.7384 39.7793 28.7816 38.9543 28.0968C38.1293 27.4121 37.087 27.0444 36.0149 27.06H31.5149C30.8685 27.0539 30.2283 27.1872 29.638 27.4508C29.0477 27.7144 28.5211 28.102 28.0941 28.5874C27.667 29.0728 27.3496 29.6445 27.1634 30.2636C26.9772 30.8826 26.9265 31.5346 27.0149 32.175C27.814 38.4591 30.6839 44.2978 35.1714 48.7689C39.6588 53.2401 45.508 56.0887 51.7949 56.865H52.3649C53.471 56.8666 54.539 56.4608 55.3649 55.725C55.8395 55.3006 56.2185 54.7803 56.4771 54.1985C56.7357 53.6167 56.8679 52.9866 56.8649 52.35V47.85C56.8465 46.8081 56.4671 45.8048 55.7914 45.0115C55.1157 44.2182 54.1856 43.6839 53.1599 43.5ZM53.9099 52.5C53.9096 52.713 53.864 52.9234 53.7761 53.1174C53.6881 53.3114 53.5599 53.4844 53.3999 53.625C53.2328 53.7705 53.0369 53.8791 52.8249 53.9437C52.613 54.0083 52.3898 54.0275 52.1699 54C46.5523 53.2797 41.3343 50.7097 37.339 46.6954C33.3437 42.6811 30.7985 37.451 30.1049 31.83C30.081 31.6103 30.102 31.388 30.1664 31.1766C30.2309 30.9652 30.3375 30.769 30.4799 30.6C30.6205 30.44 30.7935 30.3117 30.9875 30.2238C31.1815 30.1359 31.3919 30.0903 31.6049 30.09H36.1049C36.4537 30.0822 36.7943 30.1963 37.0681 30.4126C37.3419 30.6289 37.5317 30.9338 37.6049 31.275C37.6649 31.685 37.7399 32.09 37.8299 32.49C38.0032 33.2807 38.2338 34.0578 38.5199 34.815L36.4199 35.79C36.2404 35.8724 36.0788 35.9894 35.9446 36.1344C35.8104 36.2794 35.7062 36.4494 35.6379 36.6348C35.5696 36.8201 35.5386 37.0172 35.5467 37.2146C35.5547 37.412 35.6017 37.6058 35.6849 37.785C37.8437 42.4091 41.5608 46.1262 46.1849 48.285C46.5501 48.435 46.9597 48.435 47.3249 48.285C47.512 48.2181 47.6839 48.1147 47.8307 47.9808C47.9774 47.8469 48.0961 47.6851 48.1799 47.505L49.1099 45.405C49.8854 45.6823 50.6768 45.9127 51.4799 46.095C51.8799 46.185 52.2849 46.26 52.6949 46.32C53.036 46.3932 53.341 46.583 53.5573 46.8568C53.7736 47.1306 53.8877 47.4712 53.8799 47.82L53.9099 52.5Z" fill="#A8201A"/>
<defs>
<filter id="filter0_d_17_128" x="0" y="0" width="84" height="84" filterUnits="userSpaceOnUse" color-interpolation-filters="sRGB">
<feFlood flood-opacity="0" result="BackgroundImageFix"/>
<feColorMatrix in="SourceAlpha" type="matrix" values="0 0 0 0 0 0 0 0 0 0 0 0 0 0 0 0 0 0 127 0" result="hardAlpha"/>
<feOffset/>
<feGaussianBlur stdDeviation="6"/>
<feComposite in2="hardAlpha" operator="out"/>
<feColorMatrix type="matrix" values="0 0 0 0 0.643137 0 0 0 0 0.654902 0 0 0 0 0.721569 0 0 0 0.75 0"/>
<feBlend mode="normal" in2="BackgroundImageFix" result="effect1_dropShadow_17_128"/>
<feBlend mode="normal" in="SourceGraphic" in2="effect1_dropShadow_17_128" result="shape"/>
</filter>
</defs>
</svg>
