<svg width="84" height="84" viewBox="0 0 84 84" fill="none" xmlns="http://www.w3.org/2000/svg">
<g filter="url(#filter0_d_17_128)">
<circle cx="42" cy="42" r="30" fill="#FCFAFB"/>
</g>
<path d="M53.16 43.5C52.83 43.5 52.485 43.395 52.155 43.32C51.4868 43.1728 50.83 42.9773 50.19 42.735C49.4942 42.4819 48.7292 42.495 48.0425 42.772C47.3557 43.0489 46.7957 43.57 46.47 44.235L46.14 44.91C44.679 44.0973 43.3365 43.0879 42.15 41.91C40.9722 40.7236 39.9628 39.381 39.15 37.92L39.78 37.5C40.4451 37.1744 40.9662 36.6143 41.2431 35.9276C41.52 35.2408 41.5332 34.4759 41.28 33.78C41.0419 33.1387 40.8464 32.4822 40.695 31.815C40.62 31.485 40.56 31.14 40.515 30.795C40.3329 29.7385 39.7795 28.7817 38.9545 28.0969C38.1295 27.4122 37.0871 27.0445 36.015 27.06H31.515C30.8686 27.054 30.2284 27.1873 29.6381 27.4508C29.0478 27.7144 28.5212 28.1021 28.0942 28.5875C27.6672 29.0728 27.3497 29.6445 27.1635 30.2636C26.9773 30.8827 26.9266 31.5346 27.015 32.175C27.8141 38.4591 30.6841 44.2979 35.1715 48.769C39.6589 53.2401 45.5081 56.0888 51.795 56.865H52.365C53.4711 56.8667 54.5391 56.4608 55.365 55.725C55.8396 55.3006 56.2187 54.7803 56.4772 54.1985C56.7358 53.6167 56.868 52.9867 56.865 52.35V47.85C56.8467 46.8081 56.4672 45.8049 55.7915 45.0115C55.1158 44.2182 54.1858 43.684 53.16 43.5V43.5ZM53.91 52.5C53.9098 52.713 53.8641 52.9235 53.7762 53.1175C53.6883 53.3115 53.56 53.4845 53.4 53.625C53.2329 53.7706 53.037 53.8792 52.825 53.9438C52.6131 54.0084 52.3899 54.0276 52.17 54C46.5524 53.2798 41.3344 50.7098 37.3391 46.6955C33.3438 42.6812 30.7986 37.4511 30.105 31.83C30.0812 31.6103 30.1021 31.388 30.1665 31.1766C30.231 30.9652 30.3376 30.7691 30.48 30.6C30.6206 30.44 30.7936 30.3118 30.9876 30.2239C31.1816 30.1359 31.3921 30.0903 31.605 30.09H36.105C36.4538 30.0823 36.7945 30.1964 37.0682 30.4127C37.342 30.6289 37.5318 30.9339 37.605 31.275C37.665 31.685 37.74 32.09 37.83 32.49C38.0033 33.2808 38.2339 34.0578 38.52 34.815L36.42 35.79C36.2405 35.8724 36.079 35.9895 35.9448 36.1344C35.8106 36.2794 35.7063 36.4495 35.638 36.6348C35.5697 36.8202 35.5387 37.0172 35.5468 37.2146C35.5549 37.412 35.6018 37.6059 35.685 37.785C37.8438 42.4092 41.5609 46.1262 46.185 48.285C46.5502 48.4351 46.9598 48.4351 47.325 48.285C47.5121 48.2181 47.684 48.1147 47.8308 47.9808C47.9776 47.8469 48.0963 47.6852 48.18 47.505L49.11 45.405C49.8855 45.6824 50.6769 45.9128 51.48 46.095C51.88 46.185 52.285 46.26 52.695 46.32C53.0362 46.3932 53.3411 46.583 53.5574 46.8568C53.7737 47.1306 53.8878 47.4712 53.88 47.82L53.91 52.5Z" fill="#2D3142"/>
<path d="M53.16 43.5C52.83 43.5 52.485 43.395 52.155 43.32C51.4868 43.1728 50.83 42.9773 50.19 42.735C49.4942 42.4819 48.7292 42.495 48.0425 42.772C47.3557 43.0489 46.7957 43.57 46.47 44.235L46.14 44.91C44.679 44.0973 43.3365 43.0879 42.15 41.91C40.9722 40.7236 39.9628 39.381 39.15 37.92L39.78 37.5C40.4451 37.1744 40.9662 36.6143 41.2431 35.9276C41.52 35.2408 41.5332 34.4759 41.28 33.78C41.0419 33.1387 40.8464 32.4822 40.695 31.815C40.62 31.485 40.56 31.14 40.515 30.795C40.3329 29.7385 39.7795 28.7817 38.9545 28.0969C38.1295 27.4122 37.0871 27.0445 36.015 27.06H31.515C30.8686 27.054 30.2284 27.1873 29.6381 27.4508C29.0478 27.7144 28.5212 28.1021 28.0942 28.5875C27.6672 29.0728 27.3497 29.6445 27.1635 30.2636C26.9773 30.8827 26.9266 31.5346 27.015 32.175C27.8141 38.4591 30.6841 44.2979 35.1715 48.769C39.6589 53.2401 45.5081 56.0888 51.795 56.865H52.365C53.4711 56.8667 54.5391 56.4608 55.365 55.725C55.8396 55.3006 56.2187 54.7803 56.4772 54.1985C56.7358 53.6167 56.868 52.9867 56.865 52.35V47.85C56.8467 46.8081 56.4672 45.8049 55.7915 45.0115C55.1158 44.2182 54.1858 43.684 53.16 43.5ZM53.91 52.5C53.9098 52.713 53.8641 52.9235 53.7762 53.1175C53.6883 53.3115 53.56 53.4845 53.4 53.625C53.2329 53.7706 53.037 53.8792 52.825 53.9438C52.6131 54.0084 52.3899 54.0276 52.17 54C46.5524 53.2798 41.3344 50.7098 37.3391 46.6955C33.3438 42.6812 30.7986 37.4511 30.105 31.83C30.0812 31.6103 30.1021 31.388 30.1665 31.1766C30.231 30.9652 30.3376 30.7691 30.48 30.6C30.6206 30.44 30.7936 30.3118 30.9876 30.2239C31.1816 30.1359 31.3921 30.0903 31.605 30.09H36.105C36.4538 30.0823 36.7945 30.1964 37.0682 30.4127C37.342 30.6289 37.5318 30.9339 37.605 31.275C37.665 31.685 37.74 32.09 37.83 32.49C38.0033 33.2808 38.2339 34.0578 38.52 34.815L36.42 35.79C36.2405 35.8724 36.079 35.9895 35.9448 36.1344C35.8106 36.2794 35.7063 36.4495 35.638 36.6348C35.5697 36.8202 35.5387 37.0172 35.5468 37.2146C35.5549 37.412 35.6018 37.6059 35.685 37.785C37.8438 42.4092 41.5609 46.1262 46.185 48.285C46.5502 48.4351 46.9598 48.4351 47.325 48.285C47.5121 48.2181 47.684 48.1147 47.8308 47.9808C47.9776 47.8469 48.0963 47.6852 48.18 47.505L49.11 45.405C49.8855 45.6824 50.6769 45.9128 51.48 46.095C51.88 46.185 52.285 46.26 52.695 46.32C53.0362 46.3932 53.3411 46.583 53.5574 46.8568C53.7737 47.1306 53.8878 47.4712 53.88 47.82L53.91 52.5Z" fill="#2D3142"/>
<defs>
<filter id="filter0_d_17_128" x="0" y="0" width="84" height="84" filterUnits="userSpaceOnUse" color-interpolation-filters="sRGB">
<feFlood flood-opacity="0" result="BackgroundImageFix"/>
<feColorMatrix in="SourceAlpha" type="matrix" values="0 0 0 0 0 0 0 0 0 0 0 0 0 0 0 0 0 0 127 0" result="hardAlpha"/>
<feOffset/>
<feGaussianBlur stdDeviation="6"/>
<feComposite in2="hardAlpha" operator="out"/>
<feColorMatrix type="matrix" values="0 0 0 0 0.643137 0 0 0 0 0.654902 0 0 0 0 0.721569 0 0 0 0.75 0"/>
<feBlend mode="normal" in2="BackgroundImageFix" result="effect1_dropShadow_17_128"/>
<feBlend mode="normal" in="SourceGraphic" in2="effect1_dropShadow_17_128" result="shape"/>
</filter>
</defs>
</svg>
