<svg width="84" height="84" viewBox="0 0 84 84" fill="none" xmlns="http://www.w3.org/2000/svg">
<g filter="url(#filter0_d_17_128)">
<rect x="12" y="12" width="60" height="60" rx="12" fill="#FCFAFB"/>
</g>
<path d="M61.4199 22.58C61.234 22.3925 61.0128 22.2438 60.769 22.1422C60.5253 22.0407 60.2639 21.9884 59.9999 21.9884C59.7359 21.9884 59.4744 22.0407 59.2307 22.1422C58.987 22.2438 58.7658 22.3925 58.5799 22.58L54.3399 26.82L52.9199 25.42C52.5452 25.0475 52.0383 24.8384 51.5099 24.8384C50.9815 24.8384 50.4746 25.0475 50.0999 25.42L47.2799 28.24L45.8599 26.82C45.674 26.6325 45.4528 26.4838 45.209 26.3822C44.9653 26.2807 44.7039 26.2284 44.4399 26.2284C44.1759 26.2284 43.9144 26.2807 43.6707 26.3822C43.427 26.4838 43.2058 26.6325 43.0199 26.82L27.4799 42.38L25.9999 40.98C25.6117 40.7087 25.1398 40.584 24.6683 40.628C24.1967 40.672 23.7561 40.8819 23.4249 41.2204C23.0936 41.5589 22.8932 42.0039 22.8593 42.4763C22.8255 42.9487 22.9603 43.4177 23.2399 43.8L30.2999 50.88L26.8399 54.36L25.4199 52.92C25.0433 52.5434 24.5325 52.3318 23.9999 52.3318C23.4673 52.3318 22.9565 52.5434 22.5799 52.92C22.2033 53.2966 21.9917 53.8074 21.9917 54.34C21.9917 54.8726 22.2033 55.3834 22.5799 55.76L28.2399 61.42C28.4268 61.6054 28.6484 61.752 28.8921 61.8515C29.1357 61.9511 29.3967 62.0015 29.6599 62C29.9231 62.0015 30.184 61.9511 30.4277 61.8515C30.6714 61.752 30.893 61.6054 31.0799 61.42C31.2673 61.2341 31.4161 61.0129 31.5177 60.7692C31.6192 60.5254 31.6715 60.264 31.6715 60C31.6715 59.736 31.6192 59.4746 31.5177 59.2308C31.4161 58.9871 31.2673 58.7659 31.0799 58.58L29.6599 57.18L33.1399 53.7L40.1999 60.76C40.3851 60.949 40.606 61.0993 40.8498 61.2023C41.0935 61.3053 41.3553 61.3589 41.6199 61.36C42.0154 61.3583 42.4016 61.2394 42.7296 61.0183C43.0575 60.7972 43.3126 60.4838 43.4624 60.1177C43.6123 59.7516 43.6502 59.3494 43.5714 58.9617C43.4927 58.5741 43.3007 58.2185 43.0199 57.94L41.6199 56.52L57.1799 40.98C57.3673 40.7941 57.5161 40.5729 57.6177 40.3292C57.7192 40.0854 57.7715 39.824 57.7715 39.56C57.7715 39.296 57.7192 39.0346 57.6177 38.7908C57.5161 38.5471 57.3673 38.3259 57.1799 38.14L55.7599 36.72L58.5799 34C58.9524 33.6253 59.1615 33.1184 59.1615 32.59C59.1615 32.0616 58.9524 31.5547 58.5799 31.18L57.1799 29.76L61.4199 25.52C61.6229 25.3327 61.7849 25.1054 61.8957 24.8524C62.0065 24.5994 62.0637 24.3262 62.0637 24.05C62.0637 23.7738 62.0065 23.5006 61.8957 23.2476C61.7849 22.9946 61.6229 22.7673 61.4199 22.58ZM33.1399 48L30.2999 45.22L33.1199 42.38L35.9999 45.22L33.1399 48ZM38.7799 53.66L35.9999 50.88L38.7799 48L41.6199 50.84L38.7799 53.66ZM44.4399 48L35.9999 39.56L44.4799 31.08L45.8999 32.48L52.9599 39.56L44.4399 48ZM52.9199 34L50.0999 31.08L51.5199 29.66L52.9199 31.06L54.3199 32.46L52.9199 34Z" fill="#A8201A"/>
<path d="M61.4199 22.58C61.234 22.3925 61.0128 22.2438 60.769 22.1422C60.5253 22.0407 60.2639 21.9884 59.9999 21.9884C59.7359 21.9884 59.4744 22.0407 59.2307 22.1422C58.987 22.2438 58.7658 22.3925 58.5799 22.58L54.3399 26.82L52.9199 25.42C52.5452 25.0475 52.0383 24.8384 51.5099 24.8384C50.9815 24.8384 50.4746 25.0475 50.0999 25.42L47.2799 28.24L45.8599 26.82C45.674 26.6325 45.4528 26.4838 45.209 26.3822C44.9653 26.2807 44.7039 26.2284 44.4399 26.2284C44.1759 26.2284 43.9144 26.2807 43.6707 26.3822C43.427 26.4838 43.2058 26.6325 43.0199 26.82L27.4799 42.38L25.9999 40.98C25.6117 40.7087 25.1398 40.584 24.6683 40.628C24.1967 40.672 23.7561 40.8819 23.4249 41.2204C23.0936 41.5589 22.8932 42.0039 22.8593 42.4763C22.8255 42.9487 22.9603 43.4177 23.2399 43.8L30.2999 50.88L26.8399 54.36L25.4199 52.92C25.0433 52.5434 24.5325 52.3318 23.9999 52.3318C23.4673 52.3318 22.9565 52.5434 22.5799 52.92C22.2033 53.2966 21.9917 53.8074 21.9917 54.34C21.9917 54.8726 22.2033 55.3834 22.5799 55.76L28.2399 61.42C28.4268 61.6054 28.6484 61.752 28.8921 61.8515C29.1357 61.9511 29.3967 62.0015 29.6599 62C29.9231 62.0015 30.184 61.9511 30.4277 61.8515C30.6714 61.752 30.893 61.6054 31.0799 61.42C31.2673 61.2341 31.4161 61.0129 31.5177 60.7692C31.6192 60.5254 31.6715 60.264 31.6715 60C31.6715 59.736 31.6192 59.4746 31.5177 59.2308C31.4161 58.9871 31.2673 58.7659 31.0799 58.58L29.6599 57.18L33.1399 53.7L40.1999 60.76C40.3851 60.949 40.606 61.0993 40.8498 61.2023C41.0935 61.3053 41.3553 61.3589 41.6199 61.36C42.0154 61.3583 42.4016 61.2394 42.7296 61.0183C43.0575 60.7972 43.3126 60.4838 43.4624 60.1177C43.6123 59.7516 43.6502 59.3494 43.5714 58.9617C43.4927 58.5741 43.3007 58.2185 43.0199 57.94L41.6199 56.52L57.1799 40.98C57.3673 40.7941 57.5161 40.5729 57.6177 40.3292C57.7192 40.0854 57.7715 39.824 57.7715 39.56C57.7715 39.296 57.7192 39.0346 57.6177 38.7908C57.5161 38.5471 57.3673 38.3259 57.1799 38.14L55.7599 36.72L58.5799 34C58.9524 33.6253 59.1615 33.1184 59.1615 32.59C59.1615 32.0616 58.9524 31.5547 58.5799 31.18L57.1799 29.76L61.4199 25.52C61.6229 25.3327 61.7849 25.1054 61.8957 24.8524C62.0065 24.5994 62.0637 24.3262 62.0637 24.05C62.0637 23.7738 62.0065 23.5006 61.8957 23.2476C61.7849 22.9946 61.6229 22.7673 61.4199 22.58ZM33.1399 48L30.2999 45.22L33.1199 42.38L35.9999 45.22L33.1399 48ZM38.7799 53.66L35.9999 50.88L38.7799 48L41.6199 50.84L38.7799 53.66ZM44.4399 48L35.9999 39.56L44.4799 31.08L45.8999 32.48L52.9599 39.56L44.4399 48ZM52.9199 34L50.0999 31.08L51.5199 29.66L52.9199 31.06L54.3199 32.46L52.9199 34Z" fill="#A8201A"/>
<defs>
<filter id="filter0_d_17_128" x="0" y="0" width="84" height="84" filterUnits="userSpaceOnUse" color-interpolation-filters="sRGB">
<feFlood flood-opacity="0" result="BackgroundImageFix"/>
<feColorMatrix in="SourceAlpha" type="matrix" values="0 0 0 0 0 0 0 0 0 0 0 0 0 0 0 0 0 0 127 0" result="hardAlpha"/>
<feOffset/>
<feGaussianBlur stdDeviation="6"/>
<feComposite in2="hardAlpha" operator="out"/>
<feColorMatrix type="matrix" values="0 0 0 0 0.643137 0 0 0 0 0.654902 0 0 0 0 0.721569 0 0 0 0.75 0"/>
<feBlend mode="normal" in2="BackgroundImageFix" result="effect1_dropShadow_17_128"/>
<feBlend mode="normal" in="SourceGraphic" in2="effect1_dropShadow_17_128" result="shape"/>
</filter>
</defs>
</svg>
